<svg xmlns="http://www.w3.org/2000/svg" xmlns:xlink="http://www.w3.org/1999/xlink" width="100" height="100" viewBox="0 0 100 100"><g><g transform="translate(50 50) scale(0.69 0.69) rotate(0) translate(-50 -50)" style="fill:#01a89e"><svg fill="#01a89e" xmlns:dc="http://purl.org/dc/elements/1.1/" xmlns:cc="http://creativecommons.org/ns#" xmlns:rdf="http://www.w3.org/1999/02/22-rdf-syntax-ns#" xmlns:svg="http://www.w3.org/2000/svg" xmlns="http://www.w3.org/2000/svg" xmlns:sodipodi="http://sodipodi.sourceforge.net/DTD/sodipodi-0.dtd" xmlns:inkscape="http://www.inkscape.org/namespaces/inkscape" version="1.1" x="0px" y="0px" viewBox="0 0 100 100"><g transform="translate(0,-952.36218)"><g transform="matrix(-1,0,0,1,92.99803,959.32871)"><path d="m 52.015747,0.03543307 c -6.625984,0 -12.011811,5.38582713 -12.011811,12.01181193 0,2.161417 0.602362,4.216536 1.629921,5.988189 l -23.633857,0 0,23.63386 C 16.228346,40.641735 14.173228,40.039373 12.011811,40.039373 5.3858267,40.039373 0,45.389767 0,52.015751 c 0,6.625985 5.3858267,12.011812 12.011811,12.011812 2.161417,0 4.216535,-0.602362 5.988189,-1.629921 l 0,23.63386 67.996061,0 0,-25.051183 c -2.125984,1.877953 -4.925197,3.047244 -8.007874,3.047244 -6.625984,0 -11.976377,-5.385827 -11.976377,-12.011812 0,-6.625984 5.350393,-11.976378 11.976377,-11.976378 3.082677,0 5.88189,1.169291 8.007874,3.047244 l 0,-25.051183 -23.633858,0 c 1.027559,-1.771653 1.629922,-3.826772 1.629922,-5.988189 0,-6.6259848 -5.350394,-12.01181193 -11.976378,-12.01181193 z" style="" fill="#01a89e" fill-opacity="1" fill-rule="nonzero" stroke="none"></path></g></g></svg></g></g></svg>