<svg xmlns="http://www.w3.org/2000/svg" xmlns:xlink="http://www.w3.org/1999/xlink" width="100" height="100" viewBox="0 0 100 100"><g><g transform="translate(50 50) scale(0.69 0.69) rotate(0) translate(-50 -50)" style="fill:#e4e4e4"><svg fill="#e4e4e4" xmlns:dc="http://purl.org/dc/elements/1.1/" xmlns:cc="http://creativecommons.org/ns#" xmlns:rdf="http://www.w3.org/1999/02/22-rdf-syntax-ns#" xmlns:svg="http://www.w3.org/2000/svg" xmlns="http://www.w3.org/2000/svg" xmlns:sodipodi="http://sodipodi.sourceforge.net/DTD/sodipodi-0.dtd" xmlns:inkscape="http://www.inkscape.org/namespaces/inkscape" version="1.1" x="0px" y="0px" viewBox="0 0 100 100"><g transform="translate(0,-952.36218)"><path style="color:#000000;enable-background:accumulate;" d="m 39.8125,970.36218 c -0.81512,0.077 -1.54889,0.7063 -1.75,1.5 l -1.625,6.5 -22.4375,0 c -2.216,0 -4,1.7841 -4,4 l 0,9.5938 c 2.55343,3.5133 6.55458,5.3433 11,5.4062 l 58,0 c 4.02132,-0.606 8.91151,-1.8898 11,-5.5 l 0,-9.5 c 0,-2.2159 -1.784,-4 -4,-4 l -22.4375,0 -1.625,-6.5 c -0.21984,-0.8511 -1.05844,-1.5004 -1.9375,-1.5 -6.72362,0 -13.47775,0 -20.1875,0 z m 1.75,4 16.875,0 1,4 -18.875,0 z M 90,997.61218 c -3.23601,2.0708 -7.15918,3.70462 -11,3.75002 l -27,0 0,4 -4,0 0,-4 -27,0 c -4.2211,-0.414 -7.76757,-1.3103 -11,-3.53122 l 0,32.53122 c 0,2.2159 1.784,4 4,4 l 72,0 c 2.216,0 4,-1.7841 4,-4 z m -18.1875,26.75002 c 3.39583,0 6.79167,0 10.1875,0 1.05714,-0.016 2.03125,0.9427 2.03125,2 0,1.0573 -0.97411,2.016 -2.03125,2 l -10,0 c -1.04732,0.049 -2.04465,-0.859 -2.09375,-1.9062 -0.0491,-1.0474 0.85891,-2.0448 1.90625,-2.0938 z" fill="#e4e4e4" stroke="none" marker="none" visibility="visible" display="inline" overflow="visible"></path></g></svg></g></g></svg>