<svg xmlns="http://www.w3.org/2000/svg" xmlns:xlink="http://www.w3.org/1999/xlink" width="100" height="100" viewBox="0 0 100 100"><g><g transform="translate(50 50) scale(0.69 0.69) rotate(0) translate(-50 -50)" style="fill:#01a89e"><svg fill="#01a89e" xmlns="http://www.w3.org/2000/svg" xmlns:xlink="http://www.w3.org/1999/xlink" xml:space="preserve" version="1.1" style="shape-rendering:geometricPrecision;text-rendering:geometricPrecision;image-rendering:optimizeQuality;" viewBox="0 0 847 847" x="0px" y="0px" fill-rule="evenodd" clip-rule="evenodd"><defs><style type="text/css">
   
    .fil0 {fill:#01a89e}
   
  </style></defs><g><path class="fil0" d="M526 320l280 0c17,0 24,22 10,32l-227 164 87 266c6,16 -13,29 -26,19l-227 -165 -226 165c-14,10 -32,-3 -27,-19l87 -266 -227 -164c-13,-10 -6,-32 11,-32l280 0 86 -266c5,-16 28,-16 33,0l86 266z"></path></g></svg></g></g></svg>