<svg xmlns="http://www.w3.org/2000/svg" xmlns:xlink="http://www.w3.org/1999/xlink" width="100" height="100" viewBox="0 0 100 100"><g><g transform="translate(50 50) scale(0.69 0.69) rotate(0) translate(-50 -50)" style="fill:#e4e4e4"><svg fill="#e4e4e4" xmlns="http://www.w3.org/2000/svg" xmlns:xlink="http://www.w3.org/1999/xlink" version="1.1" x="0px" y="0px" viewBox="-255 347 100 100" enable-background="new -255 347 100 100" xml:space="preserve"><g><path fill="#e4e4e4" d="M-221,384h27c1.1,0,2-0.9,2-2s-0.9-2-2-2h-27c-1.1,0-2,0.9-2,2S-222.1,384-221,384z"></path><path fill="#e4e4e4" d="M-221,393h27c1.1,0,2-0.9,2-2s-0.9-2-2-2h-27c-1.1,0-2,0.9-2,2S-222.1,393-221,393z"></path><path fill="#e4e4e4" d="M-221,402h18c1.1,0,2-0.9,2-2s-0.9-2-2-2h-18c-1.1,0-2,0.9-2,2S-222.1,402-221,402z"></path><path fill="#e4e4e4" d="M-183.6,370h-48c-1.1,0-2,0.9-2,2v37c0,0.1,0,0.3,0,0.4c0,0,0,0,0,0c0,0.2,0.1,0.3,0.2,0.5   c0,0,0,0.1,0.1,0.1c0.1,0.2,0.2,0.3,0.3,0.4l11,11c0.1,0.1,0.2,0.2,0.3,0.3c0.1,0,0.1,0.1,0.2,0.1c0,0,0.1,0.1,0.1,0.1   c0.1,0,0.2,0.1,0.2,0.1c0,0,0.1,0,0.1,0c0.1,0,0.3,0,0.4,0h37c1.1,0,2-0.9,2-2v-48C-181.6,370.9-182.5,370-183.6,370z M-226.8,411   h4.2v4.2L-226.8,411z M-185.6,418h-33v-9c0-1.1-0.9-2-2-2h-9v-33h44V418z"></path></g></svg></g></g></svg>