<svg xmlns="http://www.w3.org/2000/svg" xmlns:xlink="http://www.w3.org/1999/xlink" width="100" height="100" viewBox="0 0 100 100"><g><g transform="translate(50 50) scale(0.69 0.69) rotate(0) translate(-50 -50)" style="fill:#e4e4e4"><svg fill="#e4e4e4" xmlns:x="http://ns.adobe.com/Extensibility/1.0/" xmlns:i="http://ns.adobe.com/AdobeIllustrator/10.0/" xmlns:graph="http://ns.adobe.com/Graphs/1.0/" xmlns="http://www.w3.org/2000/svg" xmlns:xlink="http://www.w3.org/1999/xlink" version="1.1" x="0px" y="0px" viewBox="0 0 100 100" style="enable-background:new 0 0 100 100;" xml:space="preserve"><g><g i:extraneous="self"><path d="M95,2.5L78,2.6c-0.6,0-1.3,0.3-1.7,0.7L40.4,39.1c-10-2.8-21.3-0.4-29.2,7.5c-11.6,11.6-11.6,30.5,0,42.2    s30.5,11.6,42.2,0c7.9-7.9,10.3-19.1,7.5-29.2l9.4-9.4c0.5-0.5,0.7-1.1,0.7-1.7l0-12.2l10.8,0c1.4,0,2.4-1.1,2.4-2.5l-0.1-10.7    L95,23c1.3,0,2.4-1.1,2.4-2.4l0-15.6C97.5,3.6,96.4,2.5,95,2.5z M30.9,80.9c-3.3,3.3-8.6,3.3-11.8,0c-3.3-3.3-3.3-8.6,0-11.8    c3.3-3.3,8.5-3.3,11.8,0C34.2,72.3,34.2,77.6,30.9,80.9z"></path></g></g></svg></g></g></svg>