<svg xmlns="http://www.w3.org/2000/svg" xmlns:xlink="http://www.w3.org/1999/xlink" width="100" height="100" viewBox="0 0 100 100"><g><g transform="translate(50 50) scale(0.69 0.69) rotate(0) translate(-50 -50)" style="fill:#e4e4e4"><svg fill="#e4e4e4" xmlns:x="http://ns.adobe.com/Extensibility/1.0/" xmlns:i="http://ns.adobe.com/AdobeIllustrator/10.0/" xmlns:graph="http://ns.adobe.com/Graphs/1.0/" xmlns="http://www.w3.org/2000/svg" xmlns:xlink="http://www.w3.org/1999/xlink" version="1.1" x="0px" y="0px" viewBox="0 0 64 64" enable-background="new 0 0 64 64" xml:space="preserve"><metadata><sfw xmlns="http://ns.adobe.com/SaveForWeb/1.0/"><slices></slices><sliceSourceBounds height="16384" width="16389" x="-8165" y="-8160" bottomLeftOrigin="true"></sliceSourceBounds></sfw></metadata><g><g><path d="M23,42c-3.86,0-7,3.141-7,7s3.14,7,7,7s7-3.141,7-7S26.86,42,23,42z"></path><path d="M43,42c-3.859,0-7,3.141-7,7s3.141,7,7,7s7-3.141,7-7S46.859,42,43,42z"></path><path d="M57.561,18.749C57.181,18.275,56.606,18,56,18H17.163L15.98,9.717c-0.141-0.987-0.982-1.693-1.948-1.71    C14.021,8.007,14.012,8,14,8H8c-1.104,0-2,0.896-2,2s0.896,2,2,2h4.265l3.755,26.283C16.161,39.269,17.005,40,18,40h34    c0.938,0,1.749-0.651,1.952-1.566l4-18C58.084,19.842,57.939,19.222,57.561,18.749z"></path></g></g></svg></g></g></svg>