<svg xmlns="http://www.w3.org/2000/svg" xmlns:xlink="http://www.w3.org/1999/xlink" width="100" height="100" viewBox="0 0 100 100"><g><g transform="translate(50 50) scale(0.69 0.69) rotate(0) translate(-50 -50)" style="fill:#e4e4e4"><svg fill="#e4e4e4" xmlns="http://www.w3.org/2000/svg" xmlns:xlink="http://www.w3.org/1999/xlink" xml:space="preserve" version="1.1" style="shape-rendering:geometricPrecision;text-rendering:geometricPrecision;image-rendering:optimizeQuality;" viewBox="0 0 331 315" x="0px" y="0px" fill-rule="evenodd" clip-rule="evenodd"><defs><style type="text/css">
   
    .fil0 {fill:#e4e4e4}
   
  </style></defs><g><path class="fil0" d="M172 4l43 101 109 10c6,1 9,8 4,12l-82 73 24 106c1,6 -5,11 -11,8l-94 -56 -94 56c-5,3 -12,-2 -10,-8l24 -106 -83 -73c-4,-4 -2,-11 4,-12l109 -10 44 -101c2,-5 10,-5 13,0z"></path></g></svg></g></g></svg>