<svg xmlns="http://www.w3.org/2000/svg" xmlns:xlink="http://www.w3.org/1999/xlink" width="100" height="100" viewBox="0 0 100 100"><g><g transform="translate(50 50) scale(0.69 0.69) rotate(0) translate(-50 -50)" style="fill:#e4e4e4"><svg fill="#e4e4e4" xmlns="http://www.w3.org/2000/svg" xmlns:xlink="http://www.w3.org/1999/xlink" version="1.1" x="0px" y="0px" viewBox="0 0 48 48" style="enable-background:new 0 0 48 48;" xml:space="preserve"><style type="text/css">
	.st0{fill:#e4e4e4;}
</style><g><path class="st0" d="M24,0C10.7,0,0,10.7,0,24s10.7,24,24,24s24-10.7,24-24S37.3,0,24,0z M31.9,3.9l-2.5,6.3   c-3.5-1.4-7.4-1.4-10.9,0L16,3.9C21.2,1.8,26.8,1.8,31.9,3.9z M3.9,31.9c-1-2.5-1.6-5.2-1.6-7.9s0.5-5.4,1.6-7.9l6.3,2.5   c-0.7,1.7-1.1,3.6-1.1,5.4s0.4,3.7,1.1,5.4L3.9,31.9z M16.1,44.1l2.5-6.3c1.7,0.7,3.6,1.1,5.4,1.1c1.9,0,3.7-0.4,5.4-1.1l2.5,6.3   C26.8,46.1,21.2,46.1,16.1,44.1z M24,36.5c-6.9,0-12.5-5.6-12.5-12.5S17.1,11.5,24,11.5S36.5,17.1,36.5,24S30.9,36.5,24,36.5z    M37.8,29.4c0.7-1.7,1.1-3.6,1.1-5.4c0-1.9-0.4-3.7-1.1-5.4l6.3-2.5c1,2.5,1.6,5.2,1.6,7.9s-0.5,5.4-1.6,7.9L37.8,29.4z"></path></g></svg></g></g></svg>